<?xml version="1.0" encoding="UTF-8"?>
<svg version="1.1" xmlns="http://www.w3.org/2000/svg" width="1024" height="1024">
<path d="M0 0 C337.92 0 675.84 0 1024 0 C1024 337.92 1024 675.84 1024 1024 C686.08 1024 348.16 1024 0 1024 C0 686.08 0 348.16 0 0 Z " fill="#071527" transform="translate(0,0)"/>
<path d="M0 0 C0.25594998 8.56258485 0.45084468 17.12354827 0.56993389 25.68902397 C0.62712177 29.66743825 0.70453937 33.64321891 0.82983398 37.62011719 C0.95020885 41.46534776 1.01529282 45.30806268 1.04364967 49.15503311 C1.06382841 50.61528246 1.10323917 52.07540835 1.16303062 53.5345726 C1.40446124 59.67615098 1.57075676 64.95572123 -2.33309937 70.03643799 C-5.1096255 72.58798262 -7.93592018 74.80654926 -11 77 C-12.79961495 78.46948614 -14.59245696 79.94735109 -16.375 81.4375 C-17.28378906 82.17226563 -18.19257813 82.90703125 -19.12890625 83.6640625 C-24.48960789 88.02555853 -29.73952226 92.51857539 -35 97 C-35.58749023 97.49967285 -36.17498047 97.9993457 -36.78027344 98.51416016 C-42.64495334 103.50500592 -48.49079548 108.50458054 -54.1875 113.6875 C-59.29766566 118.32621709 -64.63607304 122.66017177 -70 127 C-72.00678921 128.65879108 -74.00427329 130.32790465 -76 132 C-79.85343101 130.368284 -82.7600805 127.78493304 -85.875 125.0625 C-90.43817627 121.13678347 -95.06082184 117.32037326 -99.8125 113.625 C-104.9505361 109.62722903 -110.02247494 105.55814646 -115.0625 101.4375 C-120.8824547 96.68577805 -126.77445606 92.05126008 -132.74609375 87.4921875 C-136.41529261 84.68959473 -140.05401382 81.84867559 -143.6875 79 C-144.28836426 78.53062012 -144.88922852 78.06124023 -145.50830078 77.57763672 C-147.77655468 75.79670043 -149.95872989 74.04127011 -152 72 C-152.24050903 69.0640564 -152.24050903 69.0640564 -152.22705078 65.25537109 C-152.22734283 64.56257553 -152.22763489 63.86977997 -152.22793579 63.1559906 C-152.22654031 60.86167966 -152.21096919 58.56769184 -152.1953125 56.2734375 C-152.19158314 54.68446022 -152.1887358 53.09548064 -152.18673706 51.50650024 C-152.17909453 47.32085846 -152.15944081 43.1353551 -152.1373291 38.94976807 C-152.11688396 34.68007276 -152.1077382 30.41035513 -152.09765625 26.140625 C-152.07619543 17.76035309 -152.04205211 9.38019375 -152 1 C-147.93277128 3.38778194 -144.24184775 6.0588026 -140.5625 9 C-139.31129612 9.99231134 -138.05999127 10.98449537 -136.80859375 11.9765625 C-136.17421387 12.4809082 -135.53983398 12.98525391 -134.88623047 13.50488281 C-133.10816059 14.9142667 -131.32360141 16.31475355 -129.53515625 17.7109375 C-124.73202575 21.46209149 -119.93632198 25.21677809 -115.23046875 29.08984375 C-105.08652497 37.43791492 -94.64106187 45.29638722 -84 53 C-85.58948466 56.40162087 -87.23358619 58.32494326 -90.125 60.75 C-90.84945312 61.36359375 -91.57390625 61.9771875 -92.3203125 62.609375 C-93.15175781 63.29773438 -93.15175781 63.29773438 -94 64 C-104.63787833 56.07373772 -115.120201 47.99424932 -125.35546875 39.55444336 C-129.45789697 36.18779943 -133.6497683 33.04066583 -138 30 C-138.13002459 34.67896751 -138.18610385 39.35121344 -138.17700195 44.03198242 C-138.18393124 45.61975679 -138.2102315 47.20757954 -138.25708008 48.79467773 C-138.68790709 58.44136494 -138.68790709 58.44136494 -134.74584961 66.88183594 C-131.94027701 69.1777662 -129.08381598 71.09924561 -126 73 C-124.61968519 74.08750669 -123.25636845 75.19724262 -121.91796875 76.3359375 C-109.11246358 86.77745273 -96.10187947 96.93438621 -83 107 C-83.03029297 105.86457764 -83.06058594 104.72915527 -83.09179688 103.55932617 C-83.2040133 99.34937581 -83.31570868 95.13941176 -83.42724609 90.92944336 C-83.47560628 89.10684843 -83.52410805 87.28425725 -83.57275391 85.46166992 C-83.64262457 82.84294592 -83.71198721 80.22420889 -83.78125 77.60546875 C-83.80312378 76.78974899 -83.82499756 75.97402924 -83.84753418 75.1335907 C-84.08552245 66.09272992 -84.08552245 66.09272992 -82.66162109 64.54882812 C-82.03852051 64.04802734 -81.41541992 63.54722656 -80.7734375 63.03125 C-80.07855225 62.46591553 -79.38366699 61.90058105 -78.66772461 61.31811523 C-77.91112549 60.71813721 -77.15452637 60.11815918 -76.375 59.5 C-75.60099854 58.87488525 -74.82699707 58.24977051 -74.02954102 57.60571289 C-68.80110727 53.39536586 -63.53009143 49.23717616 -58.23510742 45.11083984 C-53.83396073 41.67765797 -49.50602243 38.1612995 -45.1875 34.625 C-38.9668148 29.53987865 -32.63963912 24.61460282 -26.24194336 19.75463867 C-21.54676066 16.18773463 -16.88306347 12.58475258 -12.25 8.9375 C-11.68974121 8.49647949 -11.12948242 8.05545898 -10.55224609 7.60107422 C-8.07694142 5.64879575 -5.61412403 3.68501009 -3.171875 1.69140625 C-1 0 -1 0 0 0 Z " fill="#3793CE" transform="translate(300,424)"/>
<path d="M0 0 C7.20443261 5.33457987 11.03931163 12.42974331 13.55859375 20.89453125 C13.55859375 25.18453125 13.55859375 29.47453125 13.55859375 33.89453125 C-2.28140625 33.89453125 -18.12140625 33.89453125 -34.44140625 33.89453125 C-32.7340079 42.80176069 -32.7340079 42.80176069 -27.44140625 48.89453125 C-21.61752472 52.2544629 -15.91440149 53.0084625 -9.41796875 51.390625 C-6.2301834 50.21370003 -4.68674987 49.41835171 -3.2265625 46.30078125 C-2.63746094 45.50671875 -2.04835938 44.71265625 -1.44140625 43.89453125 C1.34458946 43.51393074 3.49232126 43.4149022 6.24609375 43.58203125 C6.94798828 43.60458984 7.64988281 43.62714844 8.37304688 43.65039062 C10.10247705 43.70921478 11.83080813 43.79889736 13.55859375 43.89453125 C11.56609352 51.18416623 9.43916881 56.60170881 2.7421875 60.55859375 C-6.79522842 65.4969858 -15.63174949 67.54032469 -26.3515625 65.28125 C-34.55287446 62.66282832 -40.78886823 58.25027789 -45.296875 50.84765625 C-50.34273069 41.0196238 -52.20874409 31.86270015 -49.7578125 20.8125 C-46.32283557 10.62159334 -40.08438023 2.76544403 -30.56640625 -2.41796875 C-20.59258396 -6.50504939 -9.18556267 -5.32189316 0 0 Z " fill="#FAFBFB" transform="translate(477.44140625,488.10546875)"/>
<path d="M0 0 C7.37789084 4.63524011 11.92538106 12.75326249 14.109375 21.00390625 C14.109375 25.29390625 14.109375 29.58390625 14.109375 34.00390625 C-2.060625 34.00390625 -18.230625 34.00390625 -34.890625 34.00390625 C-31.44216435 44.53495964 -31.44216435 44.53495964 -23.890625 51.00390625 C-18.03946955 52.9542914 -12.01623091 52.87644648 -6.390625 50.25390625 C-2.96962123 48.48732233 -2.78700327 47.79666279 -0.890625 44.00390625 C3.729375 44.00390625 8.349375 44.00390625 13.109375 44.00390625 C11.81875527 51.7476246 8.9040487 55.83179094 2.97265625 60.68359375 C-4.71544863 66.13134941 -13.75247787 66.76541851 -22.890625 66.00390625 C-32.27841185 64.11614476 -39.87483098 58.80449762 -45.33203125 50.921875 C-50.40768451 41.42609565 -51.34798487 30.50588626 -49.30859375 20.0078125 C-46.4041646 10.65793783 -39.53489232 2.61418215 -30.890625 -1.99609375 C-20.72662537 -5.9664061 -9.56841586 -5.04121083 0 0 Z " fill="#FBFBFB" transform="translate(790.890625,487.99609375)"/>
<path d="M0 0 C1.62650367 17.35354299 1.62650367 17.35354299 -1.875 23.05078125 C-4.45946472 25.32430256 -7.08841612 27.16767543 -10 29 C-11.53533447 30.21100487 -13.05625199 31.44050294 -14.5625 32.6875 C-15.3875 33.33847656 -16.2125 33.98945312 -17.0625 34.66015625 C-20.76310383 37.60784467 -24.41339453 40.61394221 -28.0625 43.625 C-28.78590576 44.2216748 -29.50931152 44.81834961 -30.25463867 45.43310547 C-31.74853895 46.66565103 -33.24227048 47.89840113 -34.73583984 49.13134766 C-37.72140386 51.59538766 -40.7088105 54.05718508 -43.69677734 56.51831055 C-45.14139586 57.7082345 -46.58573484 58.8984979 -48.02978516 60.08911133 C-51.06509951 62.59042863 -54.10240531 65.08863623 -57.16015625 67.5625 C-63.28388629 72.52349649 -69.19289639 77.67157305 -75 83 C-79.25943799 81.57505239 -82.05651685 79.49331063 -85.4375 76.5625 C-86.49982689 75.6545212 -87.56369052 74.74833796 -88.62890625 73.84375 C-89.18078613 73.37453125 -89.73266602 72.9053125 -90.30126953 72.421875 C-93.10916368 70.07160545 -95.98905055 67.8157357 -98.875 65.5625 C-99.46023437 65.10488281 -100.04546875 64.64726563 -100.6484375 64.17578125 C-101.83924934 63.24554093 -103.0304936 62.31585388 -104.22216797 61.38671875 C-107.13153217 59.11739869 -110.03516709 56.84080273 -112.9375 54.5625 C-113.51226074 54.11140869 -114.08702148 53.66031738 -114.67919922 53.19555664 C-118.97205016 49.8208955 -123.23980326 46.41575407 -127.5 43 C-132.56741274 38.9379895 -137.6475043 34.89288143 -142.75 30.875 C-143.33458984 30.41351562 -143.91917969 29.95203125 -144.52148438 29.4765625 C-146.96712416 27.55478165 -149.41021147 25.72652569 -152 24 C-152.34057617 22.02880859 -152.34057617 22.02880859 -152.29296875 19.6484375 C-152.28330078 18.79765625 -152.27363281 17.946875 -152.26367188 17.0703125 C-152.23853516 16.18085937 -152.21339844 15.29140625 -152.1875 14.375 C-152.17396484 13.4778125 -152.16042969 12.580625 -152.14648438 11.65625 C-152.11106925 9.43690211 -152.06168461 7.21874812 -152 5 C-149.21545667 6.29765126 -146.92758387 7.72684632 -144.56640625 9.6875 C-143.92437256 10.21609619 -143.28233887 10.74469238 -142.62084961 11.28930664 C-141.94159424 11.85383545 -141.26233887 12.41836426 -140.5625 13 C-135.57670796 17.09973039 -130.56933046 21.14677329 -125.4375 25.0625 C-118.7687131 30.15096643 -112.22440219 35.38714219 -105.68798828 40.64404297 C-103.38015318 42.4979215 -101.06476769 44.34228899 -98.75 46.1875 C-94.31899074 49.73082794 -89.92736904 53.32109721 -85.54296875 56.921875 C-84.70378906 57.60765625 -83.86460937 58.2934375 -83 59 C-82.15050781 59.76828125 -81.30101562 60.5365625 -80.42578125 61.328125 C-78.21616148 63.24775208 -78.21616148 63.24775208 -76.04003906 62.75488281 C-72.61221637 61.48647355 -70.12522131 58.90393603 -67.4375 56.5 C-66.18192465 55.39867264 -64.92540411 54.29842197 -63.66796875 53.19921875 C-63.04712402 52.65442871 -62.4262793 52.10963867 -61.78662109 51.54833984 C-59.32084539 49.41142409 -56.79028222 47.35994573 -54.25 45.3125 C-49.87348373 41.76137934 -45.6916854 38.04202602 -41.52734375 34.24609375 C-38.93037607 31.93812402 -36.26595987 29.74444137 -33.5625 27.5625 C-29.75912497 24.48663412 -26.09917348 21.31246834 -22.5 18 C-17.17738268 13.10441215 -11.64387406 8.51861568 -6 4 C-5.08992187 3.25492188 -4.17984375 2.50984375 -3.2421875 1.7421875 C-1 0 -1 0 0 0 Z " fill="#3894CE" transform="translate(300,513)"/>
<path d="M0 0 C5.61 0 11.22 0 17 0 C19.53997928 7.09374931 22.07882864 14.18790115 24.61577988 21.28273392 C25.79427779 24.57838238 26.97323854 27.87386362 28.15332031 31.16894531 C29.51511737 34.97148913 30.87478718 38.77479071 32.234375 42.578125 C32.85962067 44.32261932 32.85962067 44.32261932 33.49749756 46.10235596 C36.09365913 53.37121628 38.5906213 60.66709926 41 68 C42.56395825 63.75053514 44.12650243 59.5005533 45.6875 55.25 C45.92732605 54.59704956 46.1671521 53.94409912 46.41424561 53.2713623 C49.49603162 44.87675728 52.55695368 36.47490178 55.58984375 28.0625 C56.03329384 26.83258331 56.03329384 26.83258331 56.48570251 25.57781982 C57.94141017 21.53864542 59.39499213 17.49871639 60.84643555 13.45800781 C61.37938056 11.97720851 61.91233887 10.496414 62.4453125 9.015625 C62.68962509 8.33363037 62.93393768 7.65163574 63.18565369 6.94897461 C64.88699266 2.22601467 64.88699266 2.22601467 66 0 C71.61 0 77.22 0 83 0 C80.86042207 7.40890956 78.38343669 14.61804665 75.68359375 21.83984375 C75.26763443 22.96024551 74.85167511 24.08064728 74.42311096 25.23500061 C73.09750153 28.80359694 71.76761556 32.37058111 70.4375 35.9375 C69.57197485 38.26486584 68.70673835 40.59233905 67.84179688 42.91992188 C66.11320627 47.57066826 64.38305589 52.22082998 62.65185547 56.87060547 C58.41993182 68.24164154 54.21081811 79.62113509 50 91 C44.39 91 38.78 91 33 91 C27.26422052 76.43697924 21.84889877 61.77144453 16.5 47.0625 C15.26802869 43.68004192 14.0355064 40.29778522 12.80273438 36.9156189 C12.00391684 34.72332693 11.20572808 32.53080573 10.40820312 30.33804321 C8.57074191 25.28941585 6.72383637 20.24482977 4.84765625 15.21044922 C4.51817993 14.3247374 4.18870361 13.43902557 3.84924316 12.526474 C3.23742592 10.8847545 2.62292043 9.24403338 2.00524902 7.60450745 C0 2.2209864 0 2.2209864 0 0 Z " fill="#FAFAFB" transform="translate(347,462)"/>
<path d="M0 0 C18.81 0 37.62 0 57 0 C57 4.62 57 9.24 57 14 C43.47 14 29.94 14 16 14 C16 22.58 16 31.16 16 40 C27.88 40 39.76 40 52 40 C52 44.62 52 49.24 52 54 C40.12 54 28.24 54 16 54 C16 66.21 16 78.42 16 91 C10.72 91 5.44 91 0 91 C0 60.97 0 30.94 0 0 Z " fill="#FBFBFC" transform="translate(818,462)"/>
<path d="M0 0 C6.43575589 2.63150907 9.98164333 6.34826388 12.8984375 12.46875 C14.38843573 16.2083534 14.81899358 19.49104042 14.80883789 23.51269531 C14.80876236 24.51343079 14.80868683 25.51416626 14.80860901 26.54522705 C14.80344772 27.61827087 14.79828644 28.6913147 14.79296875 29.796875 C14.7915538 30.90101746 14.79013885 32.00515991 14.78868103 33.14276123 C14.78308508 36.66811842 14.77053329 40.19341202 14.7578125 43.71875 C14.75279698 46.10937408 14.74823416 48.49999916 14.74414062 50.890625 C14.73311697 56.75002449 14.71585507 62.60937646 14.6953125 68.46875 C9.4153125 68.46875 4.1353125 68.46875 -1.3046875 68.46875 C-1.31927002 67.04087158 -1.33385254 65.61299316 -1.34887695 64.1418457 C-1.40688976 58.83950881 -1.48412316 53.53759525 -1.56713867 48.2355957 C-1.60037384 45.94172033 -1.62841014 43.64776346 -1.65112305 41.35375977 C-1.68469424 38.05449727 -1.73701285 34.7559807 -1.79296875 31.45703125 C-1.79935867 30.43289627 -1.8057486 29.40876129 -1.81233215 28.35359192 C-1.90621673 21.40231034 -1.90621673 21.40231034 -5.3046875 15.46875 C-9.2360907 13.17543147 -12.82233229 13.07556095 -17.3046875 13.46875 C-21.52425815 14.95801023 -24.05662984 16.74100463 -26.47302246 20.5413208 C-28.1948525 24.53175607 -27.90867065 28.83742653 -27.9140625 33.1171875 C-27.93059875 34.12971588 -27.94713501 35.14224426 -27.96417236 36.18545532 C-28.0125802 39.40494904 -28.03400781 42.62397062 -28.0546875 45.84375 C-28.08285313 48.03257574 -28.11278139 50.22137956 -28.14453125 52.41015625 C-28.21833763 57.76298196 -28.26795666 63.11554668 -28.3046875 68.46875 C-33.5846875 68.46875 -38.8646875 68.46875 -44.3046875 68.46875 C-44.3046875 46.02875 -44.3046875 23.58875 -44.3046875 0.46875 C-39.3546875 0.46875 -34.4046875 0.46875 -29.3046875 0.46875 C-29.3046875 3.10875 -29.3046875 5.74875 -29.3046875 8.46875 C-28.6446875 8.46875 -27.9846875 8.46875 -27.3046875 8.46875 C-27.1190625 7.89125 -26.9334375 7.31375 -26.7421875 6.71875 C-21.32629929 -1.75829242 -8.83132 -2.0356941 0 0 Z " fill="#F8F8F9" transform="translate(547.3046875,484.53125)"/>
<path d="M0 0 C5.28 0 10.56 0 16 0 C16.01458252 1.39758545 16.02916504 2.7951709 16.04418945 4.23510742 C16.10220831 9.42563322 16.17944163 14.61572685 16.26245117 19.8059082 C16.29568351 22.0512795 16.32372069 24.296734 16.34643555 26.54223633 C16.38001202 29.77200743 16.43233073 33.00101727 16.48828125 36.23046875 C16.49467117 37.23272995 16.5010611 38.23499115 16.50764465 39.2676239 C16.61925075 46.14081225 16.61925075 46.14081225 20 52 C24.47787961 54.98525307 28.75099779 54.47308604 34 54 C37.86253442 52.75847108 39.4013173 51.90868749 41.62426758 48.53466797 C43.46381816 43.80831246 43.47800517 39.60025041 43.51171875 34.5703125 C43.52966995 33.57998016 43.54762115 32.58964783 43.56611633 31.56930542 C43.62008901 28.42124629 43.65407356 25.27333767 43.6875 22.125 C43.72068454 19.98435412 43.75517525 17.84372806 43.79101562 15.703125 C43.8758082 10.4688588 43.94268184 5.23463624 44 0 C48.95 0 53.9 0 59 0 C59 22.44 59 44.88 59 68 C54.05 68 49.1 68 44 68 C43.505 64.535 43.505 64.535 43 61 C42.34 61.763125 41.68 62.52625 41 63.3125 C36.34483727 67.88964325 31.03435144 69.16591731 24.625 69.4375 C17.37747869 69.19625102 10.76675286 67.24270793 5.5625 62 C-2.41306101 50.74854437 -0.34611152 35.2900616 -0.1875 22.25 C-0.17242691 20.08855098 -0.15874315 17.92709181 -0.14648438 15.765625 C-0.11368468 10.51016258 -0.06204669 5.25519517 0 0 Z " fill="#FBFBFB" transform="translate(624,485)"/>
<path d="M0 0 C5.28 0 10.56 0 16 0 C16 5.28 16 10.56 16 16 C21.28 16 26.56 16 32 16 C32 20.29 32 24.58 32 29 C26.72 29 21.44 29 16 29 C16.06872358 34.37562667 16.15661316 39.75046399 16.26245117 45.12548828 C16.29575026 46.9548265 16.32376657 48.7842687 16.34643555 50.61376953 C16.37989077 53.24036056 16.43219963 55.86599441 16.48828125 58.4921875 C16.49467117 59.31306854 16.5010611 60.13394958 16.50764465 60.97970581 C16.53942217 63.52614374 16.53942217 63.52614374 17 67 C21.74631287 70.16420858 26.36756877 69.12112755 32 69 C32.66 73.62 33.32 78.24 34 83 C29.79726085 84.05068479 25.92021396 84.22047963 21.625 84.25 C20.8825 84.270625 20.14 84.29125 19.375 84.3125 C14.49819057 84.34696508 11.23095053 83.67416161 7 81 C0.65493573 74.36652372 -0.29973866 69.35444773 -0.1953125 60.54296875 C-0.1924826 59.64000565 -0.18965271 58.73704254 -0.18673706 57.80671692 C-0.17557607 54.93350766 -0.15047897 52.06061445 -0.125 49.1875 C-0.11496493 47.23503056 -0.10584 45.28255621 -0.09765625 43.33007812 C-0.07565008 38.55326434 -0.04114831 33.77668569 0 29 C-3.96 29 -7.92 29 -12 29 C-12 24.71 -12 20.42 -12 16 C-8.04 16 -4.08 16 0 16 C0 10.72 0 5.44 0 0 Z " fill="#FAFAFB" transform="translate(581,469)"/>
<path d="M0 0 C2.42503943 28.98321849 2.42503943 28.98321849 -2.73046875 35.4140625 C-5.57794847 38.06653153 -8.76719557 40.07282015 -12.16650391 41.94824219 C-14.87033317 43.4992537 -17.13941618 45.47462614 -19.5 47.5 C-20.3765625 48.2115625 -21.253125 48.923125 -22.15625 49.65625 C-26.08352234 52.89301292 -29.93303462 56.21717881 -33.78662109 59.54101562 C-38.35358202 63.47104883 -42.99575832 67.29142917 -47.6953125 71.0625 C-50.05048717 72.97555113 -50.05048717 72.97555113 -52.1796875 75.25 C-54 77 -54 77 -56 77 C-58.83370631 47.33085269 -58.83370631 47.33085269 -54.49121094 39.16162109 C-50.56596696 34.74052557 -45.67752017 32.00721388 -40.46289062 29.33007812 C-36.5768189 27.23141449 -33.21646973 24.53069336 -29.75 21.8125 C-28.44745792 20.8356743 -27.14279159 19.86167427 -25.8359375 18.890625 C-21.97740822 15.99623714 -18.16745262 13.04279149 -14.375 10.0625 C-13.8190918 9.62591064 -13.26318359 9.18932129 -12.69042969 8.73950195 C-9.98756462 6.605423 -7.3354862 4.43029846 -4.7265625 2.18359375 C-2 0 -2 0 0 0 Z " fill="#071526" transform="translate(287,453)"/>
<path d="M0 0 C0 4.95 0 9.9 0 15 C-1.69125 15.103125 -3.3825 15.20625 -5.125 15.3125 C-11.38219553 15.90613137 -15.60071343 17.1916431 -19.8125 22 C-22.36498947 25.50055699 -23.11446705 27.88597006 -23.20532227 32.10424805 C-23.22526749 32.92487228 -23.24521271 33.74549652 -23.26576233 34.59098816 C-23.29083107 35.9129998 -23.29083107 35.9129998 -23.31640625 37.26171875 C-23.33718735 38.16751175 -23.35796844 39.07330475 -23.37937927 40.00654602 C-23.44476558 42.90012016 -23.50370904 45.79378507 -23.5625 48.6875 C-23.6056956 50.64909793 -23.64931023 52.61068668 -23.69335938 54.57226562 C-23.80043582 59.38141739 -23.90173414 64.19066046 -24 69 C-29.28 69 -34.56 69 -40 69 C-40 46.56 -40 24.12 -40 1 C-35.05 1 -30.1 1 -25 1 C-24.34 3.64 -23.68 6.28 -23 9 C-22.34 8.071875 -21.68 7.14375 -21 6.1875 C-15.39239055 -0.45681035 -8.16305529 -0.3401273 0 0 Z " fill="#F7F7F8" transform="translate(737,484)"/>
<path d="M0 0 C4.95 0 9.9 0 15 0 C15 22.44 15 44.88 15 68 C10.05 68 5.1 68 0 68 C0 45.56 0 23.12 0 0 Z " fill="#FDFDFD" transform="translate(887,485)"/>
<path d="M0 0 C3.11844773 2.57695995 5.35959284 4.92524184 6.8671875 8.73046875 C6.8671875 10.05046875 6.8671875 11.37046875 6.8671875 12.73046875 C-3.6928125 12.73046875 -14.2528125 12.73046875 -25.1328125 12.73046875 C-22.96604861 6.23017708 -20.60173147 2.0430814 -14.8828125 -1.76953125 C-9.73854663 -2.70485232 -4.59383671 -2.73442662 0 0 Z " fill="#081322" transform="translate(782.1328125,498.26953125)"/>
<path d="M0 0 C3.41652998 1.79210622 5.84659514 3.79532662 8 7 C8.66 9.31 9.32 11.62 10 14 C-0.89 14 -11.78 14 -23 14 C-18.49014941 1.97373176 -13.3679317 -2.73285303 0 0 Z " fill="#071221" transform="translate(466,497)"/>
<path d="M0 0 C2.96045738 2.59040021 3.85478339 4.12870035 4.5 8 C3.85478339 11.87129965 2.96045738 13.40959979 0 16 C-4.06082892 17.38186872 -7.01198109 17.44145526 -10.9375 15.6875 C-13 14 -13 14 -14 12 C-14.58394161 4.75912409 -14.58394161 4.75912409 -12.125 1.5625 C-8.08378782 -1.40897955 -4.76379638 -1.36511952 0 0 Z " fill="#F7F7F8" transform="translate(900,462)"/>
<path d="M0 0 C4.875 2.75 4.875 2.75 6 5 C5.01 4.67 4.02 4.34 3 4 C2.93048104 12.66659167 2.87717925 21.33308731 2.84456348 29.999897 C2.82890931 34.02428284 2.8076758 38.04847788 2.77368164 42.07275391 C2.74107897 45.95662053 2.72314512 49.84030366 2.71536827 53.72429657 C2.70982636 55.20587808 2.69900428 56.68744958 2.68280983 58.16895294 C2.66102271 60.24469178 2.65803349 62.31967298 2.65942383 64.39550781 C2.65276199 65.57687317 2.64610016 66.75823853 2.63923645 67.97540283 C3.03043608 71.25517234 3.77747844 72.61439399 6 75 C3.53199953 73.84826645 1.95216435 72.95216435 0 71 C-0.24050903 68.0640564 -0.24050903 68.0640564 -0.22705078 64.25537109 C-0.22734283 63.56257553 -0.22763489 62.86977997 -0.22793579 62.1559906 C-0.22654031 59.86167966 -0.21096919 57.56769184 -0.1953125 55.2734375 C-0.19158314 53.68446022 -0.1887358 52.09548064 -0.18673706 50.50650024 C-0.17909453 46.32085846 -0.15944081 42.1353551 -0.1373291 37.94976807 C-0.11688396 33.68007276 -0.1077382 29.41035513 -0.09765625 25.140625 C-0.07619543 16.76035309 -0.04205211 8.38019375 0 0 Z " fill="#3DA4E4" transform="translate(148,425)"/>
<path d="M0 0 C0.06947174 8.6838625 0.1227967 17.36762954 0.15543652 26.05170918 C0.17110102 30.08397033 0.1923533 34.11604153 0.22631836 38.14819336 C0.25888429 42.0385392 0.27684711 45.9287022 0.28463173 49.81917381 C0.29018026 51.30437283 0.30101511 52.7895617 0.31719017 54.274683 C0.33892851 56.35302072 0.34196856 58.43060032 0.34057617 60.5090332 C0.34723801 61.69261917 0.35389984 62.87620514 0.36076355 64.09565735 C0 67 0 67 -1.52128601 68.90568542 C-2.00926163 69.26680923 -2.49723724 69.62793304 -3 70 C-3.66 69.67 -4.32 69.34 -5 69 C-4.01 68.01 -4.01 68.01 -3 67 C-2.66756372 64.2489704 -2.66756372 64.2489704 -2.68115234 60.98974609 C-2.66128265 59.72858978 -2.64141296 58.46743347 -2.62094116 57.1680603 C-2.60906386 55.78652115 -2.59740105 54.40498014 -2.5859375 53.0234375 C-2.5672329 51.61380876 -2.54766002 50.20419129 -2.5272522 48.79458618 C-2.47584988 45.08254638 -2.43626781 41.37047023 -2.39910889 37.65826416 C-2.35911978 33.87104241 -2.30800429 30.08397285 -2.2578125 26.296875 C-2.16095743 18.86468762 -2.07658363 11.43242683 -2 4 C-3.32 4.99 -4.64 5.98 -6 7 C-6.66 6.67 -7.32 6.34 -8 6 C-6.85675161 4.9970458 -5.71032809 3.99770973 -4.5625 3 C-3.92441406 2.443125 -3.28632813 1.88625 -2.62890625 1.3125 C-1 0 -1 0 0 0 Z " fill="#3EA3E2" transform="translate(300,424)"/>
<path d="M0 0 C0.33 0 0.66 0 1 0 C1 2.97 1 5.94 1 9 C-1.39582346 10.19791173 -2.86777538 10.1206744 -5.54150391 10.11352539 C-6.48232819 10.11344986 -7.42315247 10.11337433 -8.39248657 10.11329651 C-9.41023163 10.10813522 -10.42797668 10.10297394 -11.4765625 10.09765625 C-12.51694672 10.0962413 -13.55733093 10.09482635 -14.62924194 10.09336853 C-17.96119021 10.08775866 -21.29307195 10.07520447 -24.625 10.0625 C-26.88020736 10.05748627 -29.13541578 10.05292314 -31.390625 10.04882812 C-36.92710614 10.03778603 -42.46354832 10.02103827 -48 10 C-48.33 11.32 -48.66 12.64 -49 14 C-49.33 12.02 -49.66 10.04 -50 8 C-33.5 8 -17 8 0 8 C0 5.36 0 2.72 0 0 Z " fill="#01040E" transform="translate(806,514)"/>
<path d="M0 0 C0.33 0 0.66 0 1 0 C1.33 10.56 1.66 21.12 2 32 C2.99 31.01 3.98 30.02 5 29 C5.66 29.33 6.32 29.66 7 30 C6.0479279 31.00596297 5.08812654 32.00461563 4.125 33 C3.59132812 33.556875 3.05765625 34.11375 2.5078125 34.6875 C1 36 1 36 -1 36 C-1.02465098 31.03377651 -1.04283649 26.06758834 -1.05493164 21.10131836 C-1.0599719 19.41055684 -1.06680405 17.71979971 -1.07543945 16.02905273 C-1.08751857 13.60399293 -1.09323123 11.17899056 -1.09765625 8.75390625 C-1.10281754 7.99348526 -1.10797882 7.23306427 -1.11329651 6.44960022 C-1.11349238 4.6326743 -1.06197277 2.81586873 -1 1 C-0.67 0.67 -0.34 0.34 0 0 Z " fill="#060E18" transform="translate(232,494)"/>
<path d="M0 0 C0.66 0 1.32 0 2 0 C2 10.23 2 20.46 2 31 C1.34 31 0.68 31 0 31 C-0.33 22.09 -0.66 13.18 -1 4 C-1.99 4.495 -1.99 4.495 -3 5 C-1.125 1.125 -1.125 1.125 0 0 Z " fill="#03080F" transform="translate(285,453)"/>
<path d="M0 0 C3.90034574 1.89385019 6.72092608 4.16807252 10 7 C6.48283697 7 5.62878252 6.17554415 3 4 C2.89146017 6.22808159 2.81416693 8.45769932 2.75 10.6875 C2.70359375 11.92886719 2.6571875 13.17023437 2.609375 14.44921875 C3.05880657 18.53455169 4.17820323 20.09488246 7 23 C4.50638429 21.79618552 2.31856917 20.54571278 0 19 C-0.34057617 17.02880859 -0.34057617 17.02880859 -0.29296875 14.6484375 C-0.28330078 13.79765625 -0.27363281 12.946875 -0.26367188 12.0703125 C-0.23853516 11.18085937 -0.21339844 10.29140625 -0.1875 9.375 C-0.17396484 8.4778125 -0.16042969 7.580625 -0.14648438 6.65625 C-0.11106925 4.43690211 -0.06168461 2.21874812 0 0 Z " fill="#40A9E4" transform="translate(148,518)"/>
<path d="M0 0 C0.33 0 0.66 0 1 0 C1 6.6 1 13.2 1 20 C-0.98 20.99 -0.98 20.99 -3 22 C-2.67 21.34 -2.34 20.68 -2 20 C-1.94011465 18.64712743 -1.9393786 17.2912884 -1.97265625 15.9375 C-1.98490234 15.14085937 -1.99714844 14.34421875 -2.00976562 13.5234375 C-2.04492367 11.84105971 -2.08398681 10.15875899 -2.12695312 8.4765625 C-2.13791016 7.67992187 -2.14886719 6.88328125 -2.16015625 6.0625 C-2.17699463 5.33160156 -2.19383301 4.60070312 -2.21118164 3.84765625 C-2 2 -2 2 0 0 Z " fill="#40A8E5" transform="translate(299,513)"/>
<path d="M0 0 C0.66 0.33 1.32 0.66 2 1 C-0.97 4.3 -3.94 7.6 -7 11 C-8.32 10.34 -9.64 9.68 -11 9 C-7.37 6.03 -3.74 3.06 0 0 Z " fill="#3EA2DA" transform="translate(286,434)"/>
<path d="M0 0 C4.95 0 9.9 0 15 0 C17 7 17 7 16 9 C15.34 9 14.68 9 14 9 C14 6.36 14 3.72 14 1 C9.38 1 4.76 1 0 1 C0 0.67 0 0.34 0 0 Z " fill="#1F2733" transform="translate(504,484)"/>
<path d="M0 0 C4.41889613 1.35021826 6.34345343 3.26115668 9 7 C4.58110387 5.64978174 2.65654657 3.73884332 0 0 Z " fill="#060D16" transform="translate(178,467)"/>
</svg>
